<svg xmlns="http://www.w3.org/2000/svg" viewBox="0 0 1258.36 1519.2">
	<defs>
		<style>
			.cls-container1{isolation:isolate;}.cls-container2{fill:#dad8d8;mix-blend-mode:multiply;}.cls-container3{fill:#f1f2f2;}.cls-container10,.cls-container11,.cls-container12,.cls-container4,.cls-container5,.cls-container6,.cls-container7,.cls-container8,.cls-container9{fill:none;stroke:#61bad1;stroke-linecap:round;stroke-linejoin:round;stroke-width:8.75px;}.cls-container5{stroke-dasharray:26.73
			26.73;}.cls-container6{stroke-dasharray:28.48 28.48;}.cls-container7{stroke-dasharray:25.79 25.79;}.cls-container8{stroke-dasharray:28.48
			28.48;}.cls-container9{stroke-dasharray:26.77 26.77;}.cls-container10{stroke-dasharray:28.47 28.47;}.cls-container11{stroke-dasharray:25.75
			25.75;}.cls-container12{stroke-dasharray:28.48 28.48;}
		</style>
	</defs>
	<g class="cls-container1">
		<g id="Layer_2" data-name="Layer 2">
			<g id="Capa_1" data-name="Capa 1">
				<path class="cls-container2"
							d="M1258.36,1364.55v-1188c-82.56,0-149.48-69.25-149.48-154.66H180.12c0,85.41-66.94,154.66-149.48,154.66V1366c.46,0,.93,0,1.4,0,82.09,0,148.7,68.46,149.46,153.2h927.38C1108.88,1433.79,1175.8,1364.55,1258.36,1364.55Z"/>
				<path class="cls-container3"
							d="M1227.72,1342.66v-1188c-82.56,0-149.48-69.25-149.48-154.66H149.49C149.49,85.41,82.55,154.66,0,154.66v1189.5c.46,0,.94,0,1.4,0,82.1,0,148.7,68.45,149.46,153.2h927.38C1078.24,1411.9,1145.16,1342.66,1227.72,1342.66Z"/>
				<path class="cls-container4" d="M1180.65,1310.43q6.48-.63,13.12-.63v-13.13"/>
				<line class="cls-container5" x1="1193.77" y1="1269.94" x2="1193.77" y2="214.01"/>
				<path class="cls-container4" d="M1193.77,200.64V187.51q-6.63,0-13.12-.62"/>
				<path class="cls-container6" d="M1152.77,181.26c-49.8-15.61-88-58.91-97.76-112.58"/>
				<path class="cls-container4" d="M1053.12,54.54q-.55-6.49-.56-13.13h-13.13"/>
				<line class="cls-container7" x1="1013.63" y1="41.41" x2="201.19" y2="41.41"/>
				<path class="cls-container4" d="M188.29,41.41H175.16q0,6.63-.56,13.13"/>
				<path class="cls-container8" d="M169.49,82.54c-14.68,51.87-56.41,91.78-108.33,102.26"/>
				<path class="cls-container4" d="M47.07,186.89q-6.48.62-13.12.62v13.13"/>
				<line class="cls-container9" x1="33.95" y1="227.41" x2="33.95" y2="1284.7"/>
				<path class="cls-container4" d="M34,1298.09v13.13c.45,0,.89,0,1.33,0q6,0,11.8.5"/>
				<path class="cls-container10" d="M75,1317c50,15.13,88.5,58.12,98.77,111.62"/>
				<path class="cls-container4" d="M175.79,1442.78q.61,6.48.68,13.12H189.6"/>
				<line class="cls-container11" x1="215.36" y1="1455.9" x2="1026.55" y2="1455.9"/>
				<path class="cls-container4" d="M1039.43,1455.9h13.13q0-6.64.56-13.13"/>
				<path class="cls-container12" d="M1058.23,1414.77c14.68-51.87,56.42-91.77,108.33-102.26"/>
			</g>
		</g>
	</g>
</svg>
